<?xml version="1.0" standalone="no"?>
<!DOCTYPE svg PUBLIC "-//W3C//DTD SVG 20010904//EN"
 "http://www.w3.org/TR/2001/REC-SVG-20010904/DTD/svg10.dtd">
<svg version="1.0" xmlns="http://www.w3.org/2000/svg"
 width="94.000000pt" height="94.000000pt" viewBox="0 0 94.000000 94.000000"
 preserveAspectRatio="xMidYMid meet">
<metadata>
Created by potrace 1.14, written by Peter Selinger 2001-2017
</metadata>
<g transform="translate(0.000000,94.000000) scale(0.100000,-0.100000)"
fill="#000000" stroke="none">
<path d="M5 928 c-3 -7 -4 -218 -3 -468 l3 -455 465 0 465 0 0 465 0 465 -463
3 c-365 2 -464 0 -467 -10z m895 -308 l0 -280 -130 0 -129 0 -3 148 c-3 123
-5 147 -18 147 -13 0 -15 -24 -18 -147 l-3 -147 -147 -3 c-123 -3 -147 -5
-147 -18 0 -13 41 -15 298 -18 l297 -2 0 -130 0 -130 -430 0 -430 0 0 280 0
279 148 3 c123 3 147 5 147 18 0 13 -24 15 -147 18 l-148 3 0 129 0 130 430 0
430 0 0 -280z"/>
<path d="M109 831 c-20 -20 -29 -39 -29 -61 0 -22 9 -41 29 -61 40 -39 82 -39
123 1 28 29 33 30 119 30 l89 0 0 -120 0 -119 -147 -3 -148 -3 0 -175 0 -175
261 -3 c249 -2 262 -3 267 -22 6 -24 64 -60 98 -60 14 0 41 10 60 23 63 43 63
131 0 174 -19 13 -46 23 -60 23 -34 0 -92 -36 -98 -61 -5 -18 -16 -19 -239
-19 l-234 0 0 120 0 119 148 3 147 3 3 153 3 152 124 0 125 0 0 -115 c0 -88
-4 -121 -16 -140 -17 -26 -8 -58 21 -69 40 -15 75 32 51 69 -12 17 -16 57 -18
157 l-3 133 -263 8 -262 9 -29 29 c-40 39 -83 39 -122 0z m710 -575 c88 -46
50 -186 -50 -186 -28 0 -75 26 -83 45 -10 28 -7 100 7 117 30 38 79 48 126 24z"/>
<path d="M715 225 c-50 -49 -15 -135 55 -135 41 0 80 39 80 80 0 41 -39 80
-80 80 -19 0 -40 -9 -55 -25z"/>
</g>
</svg>
